# xmcd
# 
# Track frame offsets:
#     150
#     18777
#     40467
#     59804
#     78609
#     96457
#     113794
#     128509
#     152869
#     175682
#     192534
#     212432
#     233902
#     251517
# 
# Disc length: 3608
# 
# Revision: 0
# Processed by: cddbd v1.5.2PL0 Copyright (c) Steve Scherf et al.
# Submitted via: fre:ac v1.0.27
# 
DISCID=bf0e160e
DTITLE=T.M.Revolution - IIO IIO-T.M.Revolution ALL Time BEST -
DYEAR=0
DGENRE=
TTITLE0=BOARDING
TTITLE1=Out Of Orbit -Triple ZERO-
TTITLE2=INVOKE -インヴォーク-
TTITLE3=Meteor -ミーティア-
TTITLE4=Albiero -アルビレオ-
TTITLE5=Web of Night
TTITLE6=ignited -イグナイテッド-
TTITLE7=vestige -ヴェスティージ-
TTITLE8=crosswise
TTITLE9=resonance
TTITLE10=Lakers
TTITLE11=Naked arms
TTITLE12=SWORD SUMMIT
TTITLE13=Save The One,Save The All
EXTD=
EXTT0=
EXTT1=
EXTT2=
EXTT3=
EXTT4=
EXTT5=
EXTT6=
EXTT7=
EXTT8=
EXTT9=
EXTT10=
EXTT11=
EXTT12=
EXTT13=
PLAYORDER=
